<?xml version="1.0" encoding="utf-8"?>
<!-- Generator: Adobe Illustrator 25.0.0, SVG Export Plug-In . SVG Version: 6.00 Build 0)  -->
<svg version="1.1" id="Layer_1" xmlns="http://www.w3.org/2000/svg" xmlns:xlink="http://www.w3.org/1999/xlink" x="0px" y="0px"
	 viewBox="0 0 1920 1920" style="enable-background:new 0 0 1920 1920;" xml:space="preserve">
<style type="text/css">
	.st0{fill:#000000;}
</style>
<g>
	<path class="st0" d="M1920,596.29c0-303.32-245.89-549.21-549.2-549.21c-163.48,0-310.19,71.5-410.8,184.85
		C859.39,118.59,712.68,47.09,549.21,47.09C245.89,47.09,0,292.98,0,596.29C0,735.83,52.13,863.12,137.85,960
		C52.13,1056.88,0,1184.18,0,1323.71c0,303.32,245.89,549.2,549.21,549.2c163.48,0,310.19-71.5,410.79-184.85
		c100.61,113.35,247.32,184.85,410.8,184.85c303.32,0,549.2-245.89,549.2-549.2c0-139.53-52.13-266.83-137.85-363.71
		C1867.87,863.12,1920,735.83,1920,596.29z"/>
</g>
</svg>
