<?xml version="1.0" encoding="utf-8"?>
<!-- Generator: Adobe Illustrator 25.0.0, SVG Export Plug-In . SVG Version: 6.00 Build 0)  -->
<svg version="1.1" id="Layer_1" xmlns="http://www.w3.org/2000/svg" xmlns:xlink="http://www.w3.org/1999/xlink" x="0px" y="0px"
	 viewBox="0 0 1920 1920" style="enable-background:new 0 0 1920 1920;" xml:space="preserve">
<style type="text/css">
	.st0{fill:#FFFFFF;}
	.st1{fill:none;stroke:#6D6D6D;stroke-width:9.0151;stroke-linecap:round;stroke-linejoin:round;stroke-miterlimit:10;}
	.st2{fill:#004DC6;}
	.st3{fill:none;stroke:#004DC6;stroke-width:13.5227;stroke-linecap:round;stroke-linejoin:bevel;stroke-miterlimit:10;}
	.st4{fill:#F8CCE5;}
	.st5{fill:#CEDED0;}
	.st6{fill:none;stroke:#FFFFFF;stroke-width:9.6337;stroke-linecap:round;stroke-linejoin:round;stroke-miterlimit:10;}
</style>
<g>
	<g>
		<path class="st0" d="M1491.02,1490.61h30.55V455.23c0-90.2-73.12-163.33-163.33-163.33H561.76c-90.2,0-163.33,73.12-163.33,163.33
			v1035.38h43.55"/>
		<path class="st1" d="M1491.02,1490.61h30.55V455.23c0-90.2-73.12-163.33-163.33-163.33H561.76c-90.2,0-163.33,73.12-163.33,163.33
			v1035.38h43.55"/>
	</g>
	<g>
		<path class="st2" d="M1433.9,462.11c7.98-5.12,13.27-14.06,13.27-24.24c0-15.89-12.88-28.78-28.78-28.78
			c-10.18,0-19.12,5.29-24.24,13.27c-5.12-7.98-14.06-13.27-24.24-13.27c-15.89,0-28.78,12.88-28.78,28.78
			c0,10.18,5.29,19.12,13.27,24.24c-7.98,5.12-13.27,14.06-13.27,24.24c0,15.89,12.88,28.78,28.78,28.78
			c10.18,0,19.12-5.29,24.24-13.27c5.12,7.98,14.06,13.27,24.24,13.27c15.89,0,28.78-12.88,28.78-28.78
			C1447.17,476.16,1441.88,467.22,1433.9,462.11z"/>
		<g>
			<line class="st3" x1="489.86" y1="426.96" x2="579.33" y2="426.96"/>
			<line class="st3" x1="489.86" y1="462.11" x2="579.33" y2="462.11"/>
			<line class="st3" x1="489.86" y1="497.26" x2="579.33" y2="497.26"/>
		</g>
	</g>
	<path class="st4" d="M1430.07,910.89H503.04c-15.7,0-28.43-12.73-28.43-28.43V621.24c0-15.7,12.73-28.43,28.43-28.43h927.04
		c15.7,0,28.43,12.73,28.43,28.43v261.22C1458.5,898.16,1445.77,910.89,1430.07,910.89z"/>
	<path class="st5" d="M1430.07,1268.75H503.04c-15.7,0-28.43-12.73-28.43-28.43V979.1c0-15.7,12.73-28.43,28.43-28.43h927.04
		c15.7,0,28.43,12.73,28.43,28.43v261.22C1458.5,1256.02,1445.77,1268.75,1430.07,1268.75z"/>
	<path class="st2" d="M1430.07,1628.09H503.04c-15.7,0-28.43-12.73-28.43-28.43v-261.22c0-15.7,12.73-28.43,28.43-28.43h927.04
		c15.7,0,28.43,12.73,28.43,28.43v261.22C1458.5,1615.37,1445.77,1628.09,1430.07,1628.09z"/>
	<g>
		<path class="st0" d="M615.45,706.64c6.58-4.22,10.95-11.59,10.95-19.99c0-13.11-10.63-23.73-23.73-23.73
			c-8.4,0-15.77,4.37-19.99,10.95c-4.22-6.58-11.59-10.95-19.99-10.95c-13.11,0-23.73,10.63-23.73,23.73
			c0,8.4,4.37,15.77,10.95,19.99c-6.58,4.22-10.95,11.59-10.95,19.99c0,13.11,10.63,23.73,23.73,23.73c8.4,0,15.77-4.37,19.99-10.95
			c4.22,6.58,11.59,10.95,19.99,10.95c13.11,0,23.73-10.63,23.73-23.73C626.4,718.24,622.04,710.86,615.45,706.64z"/>
		<g>
			<line class="st6" x1="538.96" y1="805.76" x2="1394.16" y2="805.76"/>
			<line class="st6" x1="538.96" y1="840.78" x2="1394.16" y2="840.78"/>
		</g>
	</g>
	<g>
		<path class="st0" d="M615.45,1065.99c6.58-4.22,10.95-11.59,10.95-19.99c0-13.11-10.63-23.73-23.73-23.73
			c-8.4,0-15.77,4.37-19.99,10.95c-4.22-6.58-11.59-10.95-19.99-10.95c-13.11,0-23.73,10.63-23.73,23.73
			c0,8.4,4.37,15.77,10.95,19.99c-6.58,4.22-10.95,11.59-10.95,19.99c0,13.11,10.63,23.73,23.73,23.73c8.4,0,15.77-4.37,19.99-10.95
			c4.22,6.58,11.59,10.95,19.99,10.95c13.11,0,23.73-10.63,23.73-23.73C626.4,1077.58,622.04,1070.21,615.45,1065.99z"/>
		<g>
			<line class="st6" x1="538.96" y1="1165.1" x2="1394.16" y2="1165.1"/>
			<line class="st6" x1="538.96" y1="1200.12" x2="1394.16" y2="1200.12"/>
		</g>
	</g>
	<g>
		<path class="st0" d="M615.45,1425.33c6.58-4.22,10.95-11.59,10.95-19.99c0-13.11-10.63-23.73-23.73-23.73
			c-8.4,0-15.77,4.37-19.99,10.95c-4.22-6.58-11.59-10.95-19.99-10.95c-13.11,0-23.73,10.63-23.73,23.73
			c0,8.4,4.37,15.77,10.95,19.99c-6.58,4.22-10.95,11.59-10.95,19.99c0,13.11,10.63,23.73,23.73,23.73c8.4,0,15.77-4.37,19.99-10.95
			c4.22,6.58,11.59,10.95,19.99,10.95c13.11,0,23.73-10.63,23.73-23.73C626.4,1436.92,622.04,1429.55,615.45,1425.33z"/>
		<g>
			<line class="st6" x1="538.96" y1="1524.44" x2="1394.16" y2="1524.44"/>
			<line class="st6" x1="538.96" y1="1559.47" x2="1394.16" y2="1559.47"/>
		</g>
	</g>
</g>
</svg>
