<?xml version="1.0" encoding="utf-8"?>
<!-- Generator: Adobe Illustrator 25.0.0, SVG Export Plug-In . SVG Version: 6.00 Build 0)  -->
<svg version="1.1" id="Layer_1" xmlns="http://www.w3.org/2000/svg" xmlns:xlink="http://www.w3.org/1999/xlink" x="0px" y="0px"
	 viewBox="0 0 1920 1920" style="enable-background:new 0 0 1920 1920;" xml:space="preserve">
<style type="text/css">
	.st0{fill:#000000;}
	.st1{fill:#FFFFFF;}
	.st2{fill:none;stroke:#FFFFFF;stroke-width:45.8741;stroke-linecap:round;stroke-linejoin:round;stroke-miterlimit:10;}
	.st3{fill:none;stroke:#FFFFFF;stroke-width:30.702;stroke-linecap:round;stroke-linejoin:round;stroke-miterlimit:10;}
</style>
<path class="st0" d="M1648.5,699.16c0-217.54-176.35-393.88-393.88-393.88c-117.24,0-222.46,51.28-294.62,132.57
	c-72.15-81.29-177.37-132.57-294.62-132.57c-217.54,0-393.88,176.35-393.88,393.88c0,100.07,37.39,191.36,98.87,260.84
	c-61.48,69.48-98.87,160.77-98.87,260.84c0,217.53,176.35,393.88,393.88,393.88c117.24,0,222.46-51.28,294.62-132.57
	c72.15,81.29,177.37,132.57,294.62,132.57c217.53,0,393.88-176.35,393.88-393.88c0-100.07-37.39-191.36-98.87-260.84
	C1611.11,890.52,1648.5,799.23,1648.5,699.16z"/>
<ellipse class="st1" cx="935.57" cy="988.34" rx="71.01" ry="35.51"/>
<ellipse class="st1" cx="809.53" cy="809.91" rx="36.84" ry="73.69"/>
<path class="st2" d="M885.62,1161.95c0,0,123.31,39.75,214.01-52.99"/>
<path class="st3" d="M1104.88,760.93c-27.17,16.43-53.33,34.74-78.79,57.28c29.96,13.24,55.82,27.11,77.5,40.66"/>
</svg>
