<?xml version="1.0" encoding="utf-8"?>
<!-- Generator: Adobe Illustrator 25.0.0, SVG Export Plug-In . SVG Version: 6.00 Build 0)  -->
<svg version="1.1" id="Layer_1" xmlns="http://www.w3.org/2000/svg" xmlns:xlink="http://www.w3.org/1999/xlink" x="0px" y="0px"
	 viewBox="0 0 1920 1920" style="enable-background:new 0 0 1920 1920;" xml:space="preserve">
<style type="text/css">
	.st0{fill:#004DC6;}
	.st1{fill:#F8CCE5;}
	.st2{fill:#EC5C2C;}
	.st3{fill:#CEDED0;}
</style>
<g>
	<path class="st0" d="M1537.68,1305.66c46.59-29.86,77.49-82.06,77.49-141.51c0-92.79-75.22-168.01-168.01-168.01
		c-59.45,0-111.64,30.9-141.51,77.49c-29.86-46.59-82.06-77.49-141.51-77.49c-92.79,0-168.01,75.22-168.01,168.01
		c0,59.45,30.9,111.64,77.49,141.51c-46.59,29.86-77.49,82.06-77.49,141.51c0,92.79,75.22,168.01,168.01,168.01
		c59.45,0,111.64-30.9,141.51-77.49c29.86,46.59,82.06,77.49,141.51,77.49c92.79,0,168.01-75.22,168.01-168.01
		C1615.17,1387.72,1584.27,1335.52,1537.68,1305.66z"/>
	<path class="st1" d="M1305.66,304.83L1305.66,304.83c-170.94,0-309.51,138.57-309.51,309.51v309.51h619.03V614.34
		C1615.17,443.4,1476.6,304.83,1305.66,304.83z"/>
	<path class="st2" d="M821.78,614.34c62.68-32.51,102.07-79.53,102.07-131.85c0-98.12-138.57-177.67-309.51-177.67
		S304.83,384.38,304.83,482.5c0,52.31,39.4,99.33,102.07,131.85c-62.68,32.51-102.07,79.54-102.07,131.85
		c0,98.12,138.57,177.67,309.51,177.67s309.51-79.54,309.51-177.67C923.86,693.88,884.46,646.86,821.78,614.34z"/>
	<path class="st3" d="M921.8,996.61c-1.26-0.68-2.8-0.61-3.99,0.19l-303.47,202.32L310.87,996.8c-1.19-0.8-2.73-0.87-3.99-0.19
		c-1.26,0.68-2.05,1.99-2.05,3.42v611.25c0,1.44,0.79,2.75,2.05,3.42c0.57,0.31,1.2,0.46,1.83,0.46c0.76,0,1.51-0.22,2.16-0.65
		l303.47-202.32l303.47,202.32c0.65,0.43,1.4,0.65,2.16,0.65c0.63,0,1.26-0.15,1.83-0.46c1.26-0.68,2.05-1.99,2.05-3.42v-611.25
		C923.86,998.6,923.07,997.29,921.8,996.61z"/>
</g>
</svg>
